<svg width="448" height="449" viewBox="0 0 448 449" fill="none" xmlns="http://www.w3.org/2000/svg">
<circle cx="236" cy="237" r="168" fill="white"/>
<path d="M99.693 176.869C108.725 175.616 116.205 174.557 122.133 173.693C128.168 172.678 133.048 171.858 136.772 171.233L146.98 169.517L204.378 159.871C205.067 162.396 205.68 164.868 206.218 167.286C206.864 169.554 207.337 171.587 207.639 173.385C208.006 175.568 208.277 177.569 208.45 179.388C208.624 181.207 208.755 183.166 208.843 185.264C208.889 187.104 208.956 189.074 209.044 191.171C209.133 193.269 209.039 195.463 208.764 197.754C205.801 191.122 202.476 186.268 198.79 183.19C195.233 180.091 191.773 177.966 188.411 176.814C184.492 175.492 180.531 175.102 176.529 175.642C171.307 176.784 167.274 177.924 164.428 179.062C161.583 180.2 159.422 181.488 157.947 182.924C156.472 184.36 155.415 185.924 154.775 187.616C154.242 189.158 153.677 190.903 153.08 192.852C152.568 194.523 152.261 197.017 152.159 200.335C151.97 203.139 151.943 206.907 152.078 211.637C152.341 216.346 152.767 222.414 153.355 229.842C156.649 228.232 159.248 226.805 161.151 225.561C163.183 224.295 164.787 223.233 165.963 222.375C167.246 221.368 168.155 220.489 168.689 219.739C169.073 218.882 169.606 217.34 170.288 215.113C170.757 213.186 171.374 210.573 172.14 207.276C173.035 203.957 173.992 199.439 175.012 193.722C176.261 199.585 177.22 204.507 177.889 208.488C178.537 212.34 179.13 215.476 179.668 217.894C180.143 220.719 180.585 222.955 180.994 224.603L182.224 231.922C182.677 234.619 183.292 238.278 184.069 242.901C184.952 247.374 186.105 253.055 187.527 259.946C185.188 255.454 183.15 251.968 181.412 249.487C179.782 246.856 178.399 244.91 177.262 243.649C175.955 242.152 174.862 241.147 173.983 240.635C173.041 240.529 171.778 240.477 170.194 240.479C168.76 240.588 166.952 240.826 164.769 241.193C162.714 241.538 160.136 242.302 157.033 243.483C157.835 250.61 158.731 256.335 159.722 260.658C160.819 264.831 161.883 268.019 162.913 270.222C164.008 272.811 165.103 274.607 166.196 275.612C167.545 276.574 170.019 277.148 173.615 277.336C177.19 277.395 181.15 276.994 185.494 276.132C189.945 275.12 194.374 273.583 198.781 271.522C203.188 269.462 206.941 266.652 210.04 263.095C212.326 260.202 214.698 256.634 217.154 252.393C219.182 248.751 221.328 244.231 223.589 238.834C225.98 233.415 228.133 226.98 230.05 219.528C230.507 225.392 230.931 230.272 231.322 234.168C231.819 237.913 232.133 240.963 232.265 243.318C232.461 246.057 232.614 248.144 232.723 249.578C232.982 251.119 233.156 253.334 233.246 256.224C233.399 258.707 233.51 262.121 233.581 266.467C233.757 270.662 233.936 276.045 234.116 282.617C228.102 283.759 222.41 284.848 217.038 285.883C211.645 286.789 206.905 287.652 202.817 288.471C197.959 289.419 193.487 290.303 189.399 291.122C185.162 291.834 180.507 292.814 175.436 294.062C170.985 295.075 165.72 296.355 159.643 297.905C153.694 299.433 147.136 301.261 139.968 303.39C139.142 294.55 138.211 286.256 137.173 278.509C136.242 270.611 135.344 263.698 134.48 257.77C133.443 250.814 132.364 244.394 131.243 238.509C129.403 223.634 127.14 211.735 124.452 202.812C121.764 193.89 119.434 188.274 117.462 185.965C116.54 185.195 115.265 184.287 113.637 183.24C112.309 182.407 110.499 181.457 108.207 180.39C105.915 179.323 103.077 178.149 99.693 176.869Z" fill="#752E96"/>
<path d="M140.081 305.533C141.149 305.423 142.084 305.298 142.887 305.158C143.72 305.01 144.417 304.897 144.978 304.819C145.629 304.718 146.182 304.61 146.636 304.494L148.408 304.043C149.589 303.742 151.531 303.2 154.233 302.415C153.621 302.797 153.138 303.242 152.784 303.752C152.46 304.253 152.216 304.751 152.051 305.244C151.841 305.813 151.726 306.375 151.706 306.928C151.686 307.61 151.735 308.501 151.853 309.599C151.941 310.577 152.101 311.842 152.335 313.395C152.6 314.94 152.96 316.863 153.417 319.165C154.342 317.35 155.142 315.744 155.818 314.346C156.525 312.941 157.13 311.707 157.633 310.644C158.136 309.58 158.549 308.669 158.872 307.91C159.225 307.143 159.51 306.49 159.728 305.951C160.253 304.721 160.53 303.909 160.559 303.514C160.535 303.295 160.455 303.041 160.317 302.754C160.195 302.527 160.031 302.262 159.825 301.96C159.611 301.627 159.329 301.28 158.979 300.917C160.206 300.67 161.247 300.453 162.103 300.268C162.989 300.074 163.723 299.92 164.306 299.804C164.98 299.664 165.529 299.541 165.953 299.433L167.861 298.947C168.558 298.77 169.466 298.539 170.587 298.254C171.7 297.938 173.1 297.55 174.789 297.088C173.737 297.645 172.77 298.279 171.886 298.987C171.002 299.696 170.221 300.362 169.541 300.987C168.764 301.733 168.051 302.478 167.402 303.224C166.769 304.03 166.071 304.965 165.31 306.03C164.67 306.934 163.936 308.04 163.107 309.347C162.272 310.624 161.387 312.091 160.454 313.747C162.495 316.065 164.235 317.96 165.674 319.432C167.135 320.866 168.345 322.009 169.304 322.862C170.399 323.873 171.301 324.627 172.008 325.124C172.699 325.561 173.486 325.989 174.366 326.41C175.103 326.771 176.007 327.153 177.077 327.558C178.14 327.933 179.335 328.257 180.662 328.532L167.878 332.463C167.998 332.174 168.03 331.86 167.976 331.519C167.944 331.14 167.89 330.799 167.812 330.496C167.728 330.163 167.605 329.808 167.444 329.429C167.2 328.976 166.681 328.269 165.889 327.31C165.226 326.479 164.24 325.327 162.93 323.855C161.612 322.352 159.823 320.389 157.562 317.966L154.729 322.991C154.824 323.999 154.972 324.896 155.173 325.684C155.373 326.471 155.569 327.115 155.761 327.614C156.013 328.227 156.273 328.741 156.54 329.157C156.837 329.565 157.226 330.014 157.705 330.505C158.109 330.95 158.627 331.464 159.258 332.045C159.89 332.625 160.662 333.251 161.574 333.922C160.831 333.918 160.104 333.974 159.392 334.09C158.672 334.177 158.021 334.278 157.438 334.394C156.764 334.533 156.132 334.71 155.541 334.925C154.921 335.148 154.202 335.427 153.385 335.764C152.689 336.07 151.834 336.449 150.82 336.901C149.806 337.352 148.653 337.887 147.359 338.507C147.925 337.944 148.348 337.385 148.626 336.83C148.904 336.276 149.11 335.756 149.244 335.27C149.394 334.716 149.456 334.2 149.431 333.723C149.391 333.314 149.221 332.454 148.92 331.144C148.649 329.827 148.294 328.305 147.855 326.579C147.438 324.814 146.968 322.967 146.444 321.037C145.921 319.106 145.428 317.297 144.966 315.608C144.504 313.92 144.093 312.493 143.732 311.328C143.393 310.124 143.174 309.39 143.074 309.125C142.876 308.724 142.639 308.3 142.364 307.854C142.105 307.469 141.781 307.084 141.393 306.699C141.027 306.276 140.59 305.887 140.081 305.533ZM176.542 311.201C176.647 310.98 176.653 310.624 176.56 310.132C176.49 309.602 176.465 308.995 176.484 308.313C176.535 307.623 176.713 306.868 177.021 306.048C177.328 305.229 177.95 304.377 178.886 303.494C179.791 302.618 180.729 301.993 181.697 301.618C182.666 301.242 183.631 301.045 184.594 301.026C185.556 301.006 186.489 301.124 187.392 301.378C188.325 301.624 189.195 301.935 190 302.31C190.546 302.558 191.045 302.995 191.494 303.623C191.936 304.22 192.341 304.923 192.708 305.732C193.076 306.542 193.409 307.408 193.708 308.331C194.031 309.217 194.318 310.095 194.572 310.965C194.818 311.806 195.034 312.589 195.219 313.316C195.426 314.005 195.633 314.565 195.84 314.996C196.13 315.631 196.489 316.153 196.915 316.56C197.334 316.938 197.767 317.247 198.215 317.487C198.656 317.698 199.081 317.847 199.49 317.937C199.9 318.026 200.253 318.081 200.548 318.103C200.753 318.147 200.935 318.165 201.094 318.157C201.428 318.201 201.64 318.147 201.73 317.995C201.656 318.466 201.582 318.871 201.508 319.213C201.434 319.554 201.378 319.842 201.341 320.077C201.282 320.351 201.226 320.574 201.173 320.749C201.129 320.954 201.065 321.147 200.983 321.33C200.93 321.504 200.851 321.702 200.746 321.922C200.641 322.142 200.54 322.377 200.442 322.628C200.01 322.577 199.585 322.491 199.168 322.372C198.781 322.245 198.428 322.125 198.109 322.012C197.722 321.885 197.365 321.75 197.039 321.608C196.712 321.465 196.393 321.288 196.081 321.077C195.808 320.889 195.515 320.689 195.204 320.479C194.922 320.26 194.663 320.003 194.427 319.709C194.346 320.149 194.049 320.821 193.538 321.725C193.056 322.621 192.348 323.511 191.411 324.394C190.468 325.247 189.3 325.979 187.908 326.592C186.546 327.196 184.929 327.43 183.056 327.294C182.237 327.245 181.437 327.078 180.655 326.793C179.866 326.478 179.144 326.049 178.49 325.506C177.866 324.955 177.34 324.283 176.912 323.489C176.507 322.657 176.275 321.684 176.218 320.57C176.16 319.456 176.311 318.466 176.671 317.601C177.032 316.735 177.532 315.979 178.174 315.332C178.815 314.685 179.575 314.121 180.452 313.64C181.329 313.159 182.256 312.745 183.232 312.4C184.012 312.17 184.811 312.015 185.629 311.935C186.326 311.887 187.08 311.937 187.892 312.085C188.696 312.203 189.436 312.514 190.113 313.019C189.674 311.422 189.29 310.165 188.96 309.25C188.653 308.296 188.404 307.569 188.212 307.07C187.937 306.495 187.723 306.098 187.57 305.879C187.365 305.705 187.137 305.506 186.886 305.279C186.665 305.045 186.406 304.853 186.11 304.703C185.806 304.522 185.453 304.402 185.051 304.343C184.649 304.284 184.21 304.332 183.733 304.485C183.226 304.647 182.852 304.887 182.611 305.206C182.369 305.526 182.2 305.875 182.103 306.254C182.029 306.596 182.023 306.952 182.085 307.323C182.147 307.694 182.243 308.008 182.373 308.266C182.48 308.432 182.621 308.606 182.796 308.787C182.964 308.938 183.18 309.092 183.446 309.25C183.712 309.408 184.046 309.517 184.448 309.576C183.775 309.844 183.173 310.077 182.643 310.277C182.106 310.446 181.648 310.611 181.27 310.771C180.831 310.948 180.449 311.093 180.123 311.208C179.798 311.323 179.42 311.484 178.988 311.69C178.61 311.851 178.145 312.05 177.593 312.288C177.04 312.525 176.405 312.816 175.686 313.16C175.814 312.901 175.93 312.662 176.036 312.442C176.133 312.191 176.223 311.975 176.306 311.793C176.381 311.58 176.459 311.383 176.542 311.201ZM184.732 314.872C184.194 315.041 183.684 315.316 183.2 315.697C182.709 316.048 182.306 316.489 181.99 317.021C181.666 317.523 181.422 318.085 181.258 318.707C181.116 319.291 181.126 319.901 181.288 320.537C181.45 321.173 181.744 321.695 182.17 322.102C182.619 322.472 183.139 322.743 183.731 322.914C184.353 323.079 184.975 323.114 185.596 323.02C186.247 322.919 186.853 322.7 187.412 322.365C187.934 322.006 188.394 321.534 188.793 320.949C189.185 320.333 189.493 319.707 189.718 319.069C189.935 318.401 190.05 317.776 190.062 317.192C190.067 316.578 189.963 316.105 189.749 315.772C189.307 315.046 188.623 314.64 187.698 314.553C186.765 314.436 185.776 314.542 184.732 314.872ZM197.095 302.633C197.776 302.395 198.351 302.184 198.821 302C199.32 301.809 199.729 301.64 200.046 301.495C200.425 301.334 200.742 301.189 200.999 301.059C201.264 300.959 201.552 300.821 201.862 300.646C202.149 300.508 202.463 300.348 202.803 300.164C203.166 299.943 203.555 299.699 203.971 299.432L205.167 305.27C205.563 304.041 206.131 303.042 206.871 302.273C207.603 301.474 208.328 300.838 209.046 300.365C209.9 299.793 210.788 299.358 211.712 299.058C212.689 298.842 213.621 298.766 214.508 298.83C215.266 298.895 216.059 299.097 216.886 299.434C217.744 299.764 218.497 300.379 219.145 301.278C219.905 299.956 220.712 298.88 221.565 298.05C222.44 297.182 223.233 296.497 223.943 295.994C224.797 295.422 225.626 295.001 226.428 294.733C227.51 294.425 228.556 294.352 229.565 294.515C230.604 294.67 231.549 294.961 232.399 295.39C233.242 295.788 233.961 296.266 234.554 296.824C235.14 297.352 235.525 297.851 235.709 298.32C235.969 298.963 236.143 299.838 236.231 300.944C236.312 302.02 236.369 303.134 236.405 304.286C236.432 305.408 236.455 306.45 236.475 307.412C236.516 308.337 236.599 308.977 236.721 309.332C236.889 309.612 237.194 309.922 237.635 310.261C238.03 310.547 238.585 310.89 239.299 311.288C240.036 311.649 241.053 312.035 242.351 312.447C241.374 312.663 240.503 312.852 239.738 313.015C239.004 313.169 238.371 313.282 237.841 313.352C237.22 313.446 236.679 313.535 236.217 313.621C235.853 313.713 235.406 313.795 234.876 313.865C234.444 313.943 233.873 314.04 233.161 314.157C232.479 314.266 231.691 314.401 230.798 314.564C231.108 314.389 231.338 314.153 231.488 313.857C231.631 313.53 231.747 313.226 231.837 312.946C231.911 312.604 231.947 312.24 231.946 311.854C231.929 311.535 231.866 311.036 231.758 310.354C231.649 309.672 231.501 308.903 231.316 308.048C231.161 307.184 230.963 306.283 230.725 305.344C230.516 304.398 230.289 303.505 230.042 302.664C229.796 301.824 229.539 301.067 229.271 300.394C229.003 299.72 228.747 299.221 228.503 298.896C228.313 298.655 228.047 298.497 227.705 298.422C227.356 298.318 226.981 298.3 226.58 298.37C226.17 298.41 225.781 298.525 225.41 298.716C225.032 298.877 224.714 299.087 224.458 299.345C224.239 299.627 223.949 300.007 223.587 300.486C223.278 300.919 222.879 301.505 222.389 302.242C221.9 302.979 221.282 303.91 220.537 305.035C220.931 306.966 221.249 308.53 221.489 309.726C221.751 310.885 221.944 311.771 222.068 312.384C222.223 313.119 222.335 313.622 222.404 313.895C222.436 314.145 222.509 314.368 222.623 314.565C222.799 315.004 223.089 315.381 223.492 315.698C223.106 315.7 222.696 315.739 222.265 315.817C221.863 315.887 221.492 315.949 221.151 316.003C220.75 316.073 220.352 316.158 219.959 316.259C219.626 316.343 219.266 316.451 218.88 316.581C218.555 316.697 218.157 316.846 217.688 317.03C217.211 317.183 216.693 317.364 216.133 317.571C216.337 317.358 216.487 317.126 216.585 316.875C216.682 316.625 216.753 316.397 216.798 316.192C216.865 315.95 216.906 315.73 216.92 315.532C216.904 315.343 216.853 314.888 216.767 314.169C216.672 313.419 216.517 312.555 216.301 311.579C216.085 310.602 215.826 309.587 215.526 308.535C215.219 307.452 214.862 306.495 214.457 305.663C214.044 304.801 213.567 304.132 213.027 303.657C212.517 303.174 211.967 303.04 211.377 303.255C210.666 303.5 209.97 303.871 209.29 304.366C208.716 304.77 208.127 305.307 207.523 305.977C206.92 306.646 206.404 307.471 205.976 308.45C206.433 310.752 206.816 312.574 207.125 313.914C207.464 315.246 207.737 316.257 207.945 316.946C208.183 317.756 208.356 318.308 208.463 318.604C208.547 318.808 208.677 319.001 208.852 319.182C208.989 319.34 209.149 319.525 209.332 319.737C209.545 319.941 209.769 320.125 210.005 320.291L202.69 321.766C202.901 321.583 203.075 321.378 203.21 321.15C203.338 320.891 203.435 320.641 203.503 320.398C203.562 320.125 203.621 319.852 203.681 319.579C203.718 319.344 203.666 318.825 203.527 318.022C203.417 317.211 203.258 316.268 203.049 315.193C202.832 314.087 202.588 312.94 202.318 311.751C202.07 310.524 201.815 309.396 201.553 308.367C201.314 307.299 201.101 306.402 200.917 305.675C200.724 304.918 200.593 304.467 200.524 304.324C200.356 304.044 200.109 303.768 199.782 303.497C199.508 303.308 199.155 303.124 198.722 302.944C198.282 302.734 197.739 302.63 197.095 302.633Z" fill="#752E96"/>
<path d="M247.95 290.489C248.924 290.763 249.715 290.988 250.322 291.164C250.971 291.323 251.493 291.459 251.888 291.572C252.353 291.682 252.713 291.761 252.966 291.808C253.219 291.856 253.585 291.92 254.063 292.002C254.485 292.057 255.026 292.151 255.688 292.282C256.363 292.385 257.22 292.503 258.259 292.636C257.901 292.816 257.599 292.987 257.353 293.149C257.148 293.296 256.957 293.414 256.778 293.504C256.586 293.622 256.415 293.733 256.265 293.836C256.114 293.939 255.932 294.113 255.716 294.358C255.555 294.559 255.334 294.853 255.054 295.24C254.786 295.599 254.474 296.092 254.118 296.719C256.095 296.457 257.833 296.377 259.333 296.48C260.861 296.596 262.153 296.776 263.21 297.02C264.451 297.313 265.513 297.697 266.396 298.17C267.493 298.777 268.427 299.514 269.197 300.383C270.009 301.236 270.683 302.129 271.218 303.062C271.753 303.995 272.162 304.939 272.446 305.894C272.73 306.849 272.887 307.746 272.915 308.584C272.934 309.143 272.776 309.861 272.443 310.74C272.137 311.631 271.635 312.501 270.937 313.35C270.238 314.198 269.348 314.942 268.264 315.58C267.223 316.202 265.996 316.516 264.584 316.522C262.15 316.507 259.913 316.1 257.872 315.302C256.994 314.968 256.127 314.536 255.27 314.006C254.441 313.488 253.657 312.837 252.917 312.051C252.206 311.278 251.594 310.362 251.083 309.302C250.585 308.214 250.249 306.96 250.075 305.54C249.183 306.884 248.434 308.07 247.825 309.098C247.258 310.11 246.798 310.964 246.444 311.662C246.038 312.472 245.718 313.168 245.486 313.75C245.283 314.344 245.117 315.007 244.987 315.738C244.869 316.371 244.768 317.116 244.686 317.972C244.618 318.869 244.608 319.827 244.657 320.846C244.513 320.711 244.291 320.558 243.991 320.386C243.707 320.256 243.396 320.148 243.057 320.061C242.69 319.962 242.281 319.843 241.829 319.705C241.392 319.607 240.906 319.505 240.371 319.397C239.934 319.3 239.42 319.185 238.828 319.051C238.252 318.959 237.654 318.874 237.037 318.797C237.518 318.571 237.955 318.256 238.347 317.851C238.754 317.487 239.106 317.133 239.402 316.787C239.737 316.356 240.057 315.919 240.364 315.475C240.588 315.062 241.001 314.272 241.605 313.105C242.224 311.979 242.914 310.662 243.674 309.154C244.447 307.618 245.238 306.004 246.048 304.313C246.886 302.634 247.637 301.071 248.301 299.622C249.007 298.158 249.58 296.908 250.02 295.872C250.461 294.836 250.677 294.214 250.67 294.004C250.648 293.753 250.532 293.443 250.324 293.072C250.159 292.756 249.881 292.388 249.49 291.968C249.126 291.561 248.613 291.068 247.95 290.489ZM254.537 302.893C254.038 303.455 253.703 304.075 253.53 304.752C253.357 305.429 253.374 306.141 253.581 306.889C253.817 307.651 254.263 308.439 254.92 309.256C255.618 310.058 256.575 310.857 257.791 311.655C259.007 312.453 260.014 312.88 260.813 312.937C261.612 312.994 262.291 312.824 262.851 312.428C263.452 312.016 263.979 311.467 264.431 310.78C264.897 310.065 265.403 309.335 265.951 308.589C266.486 307.872 266.829 307.049 266.979 306.121C267.143 305.165 267.168 304.248 267.054 303.371C266.969 302.507 266.768 301.745 266.452 301.084C266.178 300.408 265.856 299.986 265.487 299.816C264.606 299.413 263.635 299.243 262.575 299.307C261.514 299.37 260.473 299.581 259.45 299.937C258.427 300.293 257.464 300.745 256.559 301.293C255.696 301.826 255.022 302.359 254.537 302.893ZM277.704 304.437C278.377 304.917 278.964 305.324 279.465 305.657C280.007 305.974 280.464 306.252 280.836 306.491C281.264 306.756 281.642 306.981 281.97 307.166C282.298 307.351 282.683 307.561 283.124 307.798C283.878 308.178 284.958 308.673 286.363 309.283C285.565 308.848 284.814 308.762 284.11 309.023C283.447 309.269 282.865 309.639 282.364 310.131C281.755 310.711 281.221 311.463 280.763 312.388C280.133 313.612 279.64 314.761 279.285 315.836C278.971 316.895 278.822 317.858 278.838 318.724C278.894 319.576 279.143 320.308 279.583 320.923C280.036 321.509 280.764 321.945 281.767 322.233C282.77 322.521 283.629 322.52 284.347 322.23C285.106 321.924 285.774 321.44 286.353 320.777C286.945 320.086 287.483 319.25 287.967 318.269C288.48 317.3 288.998 316.283 289.521 315.217C290.016 314.137 290.353 313.364 290.533 312.896C290.755 312.413 290.884 312.094 290.92 311.939C290.957 311.784 290.94 311.708 290.871 311.71C290.814 311.684 290.775 311.58 290.755 311.399C290.75 311.26 290.717 311.107 290.656 310.941C290.623 310.788 290.568 310.609 290.491 310.401C290.427 310.166 290.349 309.924 290.256 309.675C290.982 310.042 291.622 310.37 292.177 310.659C292.774 310.932 293.265 311.174 293.649 311.385C294.091 311.622 294.475 311.833 294.803 312.017C295.103 312.189 295.495 312.42 295.98 312.712C296.381 312.964 296.908 313.274 297.564 313.644C298.22 314.013 298.99 314.47 299.876 315.013C299.157 314.855 298.534 314.828 298.006 314.929C297.478 315.031 297.036 315.172 296.678 315.352C296.279 315.547 295.938 315.803 295.655 316.121C295.349 316.564 295.01 317.303 294.64 318.336C294.293 319.243 293.881 320.515 293.405 322.154C292.93 323.792 292.36 325.972 291.697 328.693L287.413 329.152L289.329 323.173C287.867 324.187 286.492 324.863 285.202 325.2C283.955 325.522 282.855 325.671 281.904 325.647C280.784 325.615 279.771 325.426 278.864 325.079C277.699 324.545 276.723 324.012 275.936 323.479C275.19 322.931 274.578 322.392 274.099 321.863C273.619 321.334 273.266 320.829 273.04 320.347C272.856 319.85 272.756 319.392 272.742 318.973C272.67 318.08 272.874 317.074 273.353 315.953C273.846 314.803 274.403 313.701 275.024 312.645C275.659 311.561 276.262 310.582 276.833 309.71C277.405 308.838 277.741 308.218 277.84 307.851C277.901 307.569 277.946 307.246 277.975 306.882C277.979 306.574 277.967 306.225 277.94 305.834C277.926 305.415 277.847 304.949 277.704 304.437ZM321.631 318.849C321.089 319.357 320.601 319.821 320.168 320.241C319.763 320.674 319.399 321.057 319.074 321.39C318.724 321.779 318.414 322.118 318.144 322.407C317.848 322.753 317.512 323.149 317.135 323.595C316.785 323.984 316.34 324.468 315.8 325.045C315.302 325.608 314.702 326.278 314.001 327.057C314.399 325.589 314.482 324.321 314.25 323.252C314.031 322.155 313.713 321.236 313.297 320.495C312.792 319.645 312.166 318.911 311.418 318.293C310.001 317.334 308.881 316.854 308.056 316.854C307.231 316.854 306.594 317.044 306.145 317.423C305.94 317.569 305.695 317.766 305.41 318.014C305.166 318.246 304.93 318.498 304.702 318.772C304.501 319.058 304.344 319.364 304.229 319.69C304.114 320.015 304.125 320.33 304.261 320.633C304.338 320.84 304.616 321.208 305.096 321.737C305.588 322.238 306.174 322.833 306.855 323.523C307.577 324.198 308.329 324.921 309.11 325.691C309.919 326.475 310.672 327.232 311.368 327.964C312.064 328.696 312.646 329.375 313.115 330.002C313.584 330.63 313.853 331.131 313.921 331.506C313.961 331.869 313.97 332.337 313.948 332.911C313.967 333.469 313.888 334.052 313.713 334.66C313.579 335.251 313.347 335.833 313.017 336.403C312.728 336.958 312.312 337.455 311.767 337.893C311.223 338.331 310.527 338.648 309.681 338.844C308.863 339.054 307.871 339.08 306.705 338.924C305.343 338.746 304.147 338.318 303.117 337.64C302.087 336.962 301.182 336.237 300.4 335.467C299.648 334.709 299.002 334.018 298.463 333.393C297.938 332.74 297.52 332.376 297.21 332.303C296.871 332.216 296.445 332.21 295.93 332.283C295.415 332.356 294.908 332.451 294.408 332.565C293.95 332.665 293.541 332.769 293.181 332.88C292.834 332.961 292.674 332.974 292.7 332.917C292.726 332.86 292.847 332.709 293.062 332.464C293.306 332.232 293.576 331.943 293.872 331.598C294.209 331.237 294.546 330.841 294.881 330.41C295.257 329.964 295.578 329.526 295.843 329.098C296.069 328.755 296.348 328.333 296.681 327.832C296.959 327.375 297.297 326.825 297.695 326.183C298.134 325.524 298.653 324.731 299.25 323.802C299.054 324.605 298.96 325.336 298.968 325.993C299.005 326.663 299.06 327.255 299.133 327.77C299.237 328.368 299.36 328.888 299.501 329.331C299.744 329.924 300.072 330.521 300.484 331.122C300.924 331.737 301.384 332.308 301.864 332.837C302.356 333.338 302.859 333.741 303.373 334.045C303.886 334.349 304.367 334.501 304.814 334.499C305.262 334.498 305.718 334.329 306.182 333.992C306.674 333.667 307.101 333.261 307.462 332.774C307.823 332.286 308.1 331.794 308.293 331.298C308.499 330.774 308.56 330.303 308.476 329.887C308.396 329.61 308.116 329.172 307.634 328.573C307.181 327.987 306.613 327.314 305.93 326.554C305.275 325.807 304.57 325.02 303.815 324.192C303.089 323.378 302.404 322.583 301.763 321.808C301.163 321.017 300.678 320.313 300.307 319.697C299.978 319.065 299.857 318.579 299.943 318.241C300.095 317.76 300.28 317.244 300.499 316.691C300.731 316.11 301.013 315.569 301.346 315.068C301.72 314.552 302.166 314.103 302.685 313.722C303.232 313.354 303.881 313.136 304.634 313.069C305.136 313.024 305.74 313.094 306.445 313.28C307.151 313.466 307.901 313.741 308.697 314.106C309.505 314.442 310.316 314.848 311.129 315.324C311.955 315.772 312.726 316.228 313.441 316.693C314.197 317.143 314.855 317.582 315.415 318.011C316.003 318.452 316.442 318.808 316.731 319.078C317.063 319.402 317.483 319.612 317.989 319.706C318.426 319.804 318.937 319.814 319.522 319.738C320.106 319.663 320.81 319.366 321.631 318.849Z" fill="#752E96"/>
<path d="M196.332 188.151L204.246 196.495L199.167 201.312L216.491 268.263L328.908 323.587L381.877 273.354L365.336 243.56L383.839 226.013L353.991 137.863L282.247 122.522L259.391 144.198L256.082 135.622L230.934 123.638L189.575 162.861L196.332 188.151Z" fill="#752E96" stroke="white" stroke-width="3"/>
</svg>
