<svg width="831" height="270" viewBox="0 0 831 270" fill="none" xmlns="http://www.w3.org/2000/svg">
<path d="M282.14 157.776C259.052 157.776 241.588 140.756 241.588 118.26C241.588 95.764 259.052 78.744 282.14 78.744C302.268 78.744 317.956 91.62 321.656 109.528H301.232C297.976 102.276 290.872 97.392 282.14 97.392C270.3 97.392 261.42 106.42 261.42 118.26C261.42 130.1 270.3 139.128 282.14 139.128C290.872 139.128 297.976 134.244 301.232 126.992H321.656C317.956 144.9 302.268 157.776 282.14 157.776ZM417.65 137.352H419.13V156H413.654C402.998 156 396.19 152.004 393.378 144.16C387.458 152.596 378.43 157.776 367.478 157.776C346.462 157.776 330.626 140.756 330.626 118.26C330.626 95.764 346.462 78.744 367.478 78.744C377.69 78.744 386.126 83.184 392.046 90.436V80.52H411.286V130.988C411.286 134.984 413.506 137.352 417.65 137.352ZM371.178 139.128C383.166 139.128 392.046 130.1 392.046 118.26C392.046 106.42 383.166 97.392 371.178 97.392C359.338 97.392 350.458 106.42 350.458 118.26C350.458 130.1 359.338 139.128 371.178 139.128ZM556.246 137.352H557.874V156H552.398C538.042 156 530.642 148.896 530.642 135.132V112.636C530.642 103.46 524.87 97.392 515.842 97.392C506.37 97.392 500.006 103.608 500.006 112.932V156H480.766V112.636C480.766 103.46 474.846 97.392 465.966 97.392C456.494 97.392 449.982 103.608 449.982 112.932V156H430.742V80.52H449.982V89.252C455.458 82.296 463.154 78.744 472.33 78.744C483.578 78.744 492.162 83.776 496.602 92.36C502.374 83.48 511.106 78.744 522.206 78.744C538.782 78.744 549.882 89.844 549.882 106.864V130.988C549.882 134.984 552.25 137.352 556.246 137.352ZM611.855 78.744C632.871 78.744 648.559 95.764 648.559 118.26C648.559 140.756 632.871 157.776 611.855 157.776C601.643 157.776 593.207 153.336 587.287 146.084V184.12H568.047V80.52H587.287V90.436C593.207 83.184 601.643 78.744 611.855 78.744ZM608.007 139.128C619.995 139.128 628.727 130.1 628.727 118.26C628.727 106.42 619.995 97.392 608.007 97.392C596.167 97.392 587.287 106.42 587.287 118.26C587.287 130.1 596.167 139.128 608.007 139.128ZM738.491 137.352H739.971V156H734.495C724.135 156 717.327 152.152 714.515 144.752C708.743 153.188 700.307 157.776 689.947 157.776C672.927 157.776 661.531 146.38 661.531 128.916V80.52H680.771V123.292C680.771 132.912 686.987 139.128 696.311 139.128C706.227 139.128 712.887 132.764 712.887 122.996V80.52H732.127V130.988C732.127 134.984 734.495 137.352 738.491 137.352ZM798.225 80.52C801.629 100.056 828.121 99.76 828.121 126.992C828.121 145.196 816.281 157.776 796.893 157.776C785.053 157.776 774.693 153.188 767.737 145.788L763.445 156H743.613L776.173 80.52H798.225ZM793.193 139.128C802.221 139.128 808.289 134.244 808.289 126.548C808.289 115.744 793.785 112.34 786.829 100.352L774.397 129.804C778.245 135.428 785.349 139.128 793.193 139.128Z" fill="#BC183C"/>
<path d="M208.559 74.9835L271 51.1251L129.354 0.186479L0 51.1251L48.2046 73.8473L49.1884 170.417C120.02 211.317 184.948 187.459 208.559 170.417V74.9835Z" fill="#BC183C"/>
<path d="M115.784 136.76H163.292V156H95.36V53.88H162.552V73.12H115.784V95.024H157.668V114.264H115.784V136.76Z" fill="white"/>
</svg>
